<!--?xml version="1.0" encoding="utf-8"?-->
<!-- Svg Vector Icons : http://www.onlinewebfonts.com/icon -->

<svg version="1.1" xmlns="http://www.w3.org/2000/svg" xmlns:xlink="http://www.w3.org/1999/xlink" x="0px" y="0px" viewBox="0 0 256 256" enable-background="new 0 0 256 256" xml:space="preserve">
<metadata> Svg Vector Icons : http://www.onlinewebfonts.com/icon </metadata>
<g><g><g><path fill="#000000" data-title="Layer 0" xs="0" d="M217,5c-1.2,1-13.8,15.5-13.8,16c0,0.2,6.4,6,14.2,12.9c13.9,12.2,14.3,12.4,15.1,11.4c0.5-0.6,3.7-4.3,7.2-8.4c7.7-8.9,7.7-9.1,3.5-14.1c-4.3-4.9-13.7-13.2-19.2-16.8C221.1,4.3,218.4,3.9,217,5z"/><path fill="#000000" data-title="Layer 1" xs="1" d="M175.9,50.6c-13.2,13.8-51.7,53.9-85.6,89.2L28.5,204l-1.4,3.7c-0.8,2-5,12.7-9.3,23.7c-4.4,11-7.9,20.2-7.8,20.2c0.1,0.1,11-5,24.2-11.3l24-11.4l85-88.7c46.8-48.8,85.2-89,85.4-89.3c0.3-0.6-27.5-25.4-28.4-25.3C200,25.6,189.1,36.9,175.9,50.6z"/></g></g></g>
</svg>