<svg width="60" height="61" viewBox="0 0 60 61" fill="none" xmlns="http://www.w3.org/2000/svg">
<path d="M52.5 30.5C52.5 17.8711 42.4219 7.625 30 7.625C17.5781 7.625 7.5 17.8711 7.5 30.5C7.5 43.1289 17.5781 53.375 30 53.375C42.4219 53.375 52.5 43.1289 52.5 30.5Z" stroke="black" stroke-width="4" stroke-miterlimit="10"/>
<path d="M25.35 39.8453L38.7621 31.6079C38.9491 31.4921 39.1036 31.3294 39.2108 31.1353C39.318 30.9413 39.3743 30.7225 39.3743 30.4999C39.3743 30.2773 39.318 30.0585 39.2108 29.8645C39.1036 29.6704 38.9491 29.5077 38.7621 29.3919L25.35 21.1545C25.1578 21.0374 24.9384 20.9744 24.7143 20.972C24.4902 20.9696 24.2695 21.0278 24.0748 21.1407C23.8802 21.2536 23.7185 21.4171 23.6066 21.6144C23.4946 21.8118 23.4362 22.0359 23.4375 22.2637V38.7361C23.4362 38.9639 23.4946 39.188 23.6066 39.3854C23.7185 39.5827 23.8802 39.7462 24.0748 39.8591C24.2695 39.972 24.4902 40.0302 24.7143 40.0278C24.9384 40.0254 25.1578 39.9624 25.35 39.8453Z" fill="black"/>
</svg>
