<!--?xml version="1.0" encoding="utf-8"?-->
<!-- Svg Vector Icons : http://www.onlinewebfonts.com/icon -->

<svg version="1.1" xmlns="http://www.w3.org/2000/svg" xmlns:xlink="http://www.w3.org/1999/xlink" x="0px" y="0px" viewBox="0 0 256 256" enable-background="new 0 0 256 256" xml:space="preserve">
<metadata> Svg Vector Icons : http://www.onlinewebfonts.com/icon </metadata>
<g><g><path fill="#000000" data-title="Layer 0" xs="0" d="M246,128.4c0,0.1,0,0.2,0,0.3c0,0,0,0.1,0,0.2c0,0.1,0,0.1,0,0.2c0,0.1,0,0.2,0,0.2c0,0,0,0,0,0c-0.3,1.8-1.2,3.5-2.5,4.8c-2.5,2.9-5.2,5.6-7.9,8.2c-14.7,14.3-31.6,27.1-50,36.4c-11.8,5.9-24.4,10.7-37.5,13c-14.4,2.5-28.8,2.4-43.1-0.6C80.1,186,57.7,173.1,38,157.8c-9.1-7.2-18.1-14.9-25.6-23.7c-3.3-3.8-3.3-8.4,0-12.2c2.5-2.9,5.2-5.6,7.9-8.2c14.7-14.3,31.6-27.1,50.1-36.4c11.8-5.9,24.4-10.7,37.5-13c14.4-2.5,28.8-2.4,43.1,0.6c24.8,5.2,47.2,18,66.8,33.4c9.1,7.1,18,14.9,25.6,23.7c1.3,1.3,2.2,3,2.5,4.8v0c0,0.1,0,0.2,0,0.3c0,0,0,0.1,0,0.2c0,0,0,0.1,0,0.1c0,0.1,0,0.2,0,0.3c0,0.2,0,0.3,0,0.4S246,128.3,246,128.4z M128,83.8c-24.4,0-44.2,19-44.2,42.5c0,23.5,19.8,42.5,44.2,42.5c24.5,0,44.2-19,44.2-42.5S152.4,83.8,128,83.8z M128,147.4c-12.2,0-22.1-9.5-22.1-21.2c0-11.7,9.9-21.2,22.1-21.2c12.2,0,22.1,9.5,22.1,21.2C150.1,137.9,140.2,147.4,128,147.4z"/></g></g>
</svg>