<!--?xml version="1.0" encoding="utf-8"?-->
<!-- Svg Vector Icons : http://www.onlinewebfonts.com/icon -->

<svg version="1.1" xmlns="http://www.w3.org/2000/svg" xmlns:xlink="http://www.w3.org/1999/xlink" x="0px" y="0px" viewBox="0 0 256 256" enable-background="new 0 0 256 256" xml:space="preserve">
<metadata> Svg Vector Icons : http://www.onlinewebfonts.com/icon </metadata>
<g><g><path fill="#f4f1f1" data-title="Layer 0" xs="0" d="M21,181.6c-18-31.4-10.5-76.3,9-104.8c1.5-4.5,7.5-6,10.5-3c1.5,1.5,3,3,4.5,6l0,0c0,1.5,0,3,1.5,4.5c1.5-6,4.5-13.5,7.5-19.5c10.5-18,26.9-32.9,44.9-40.4c4.5-1.5,10.5,0,12,4.5c1.5,3,0,4.5,0,7.5c-3,4.5-4.5,9-4.5,13.5c13.5-12,29.9-22.4,47.9-28.4c35.9-13.5,76.3-9,91.3,31.4c1.5,4.5,0,10.5-6,12H238c-29.9,7.5-41.9,26.9-52.4,46.4c-15,25.5-28.4,50.9-77.8,49.4c3,1.5,7.5,3,13.5,4.5c4.5,1.5,7.5,6,6,12c0,3-3,4.5-4.5,6c-22.4,13.5-62.9,22.4-88.3,12c-3,4.5-9,16.5-4.5,34.4l0,0h25.5c3,0,6,3,6,6c0,3-3,6-6,6H26.9h-4.5l0,0c-4.5,0-9-3-10.5-7.5C6,207,15,190.5,21,181.6L21,181.6z M86.8,236.9L86.8,236.9h94.3c3,0,6-3,6-6c0-3-3-6-6-6H86.8c-3,0-6,3-6,6C80.8,233.9,83.8,236.9,86.8,236.9L86.8,236.9z M35.9,172.6L35.9,172.6c12,12,46.4,4.5,59.9,0c-7.5-4.5-12-10.5-13.5-13.5c-3-6-4.5-19.5,7.5-18c55.4,7.5,67.4-15,80.8-38.9c12-19.5,22.4-40.4,52.4-50.9C194.6,2,112.3,55.8,98.8,87.3c-1.5,4.5-4.5,6-9,6c-4.5,0-9-4.5-9-9c0,0,0-13.5,4.5-29.9c-6,6-12,12-15,19.5c-7.5,13.5-12,28.4-7.5,41.9l0,0c1.5,3,0,7.5-3,10.5c-4.5,1.5-10.5,1.5-13.5-3c-4.5-6-9-12-12-18C26.9,124.7,23.9,153.1,35.9,172.6L35.9,172.6z"/></g></g>
</svg>