<!--?xml version="1.0" encoding="utf-8"?-->
<!-- Svg Vector Icons : http://www.onlinewebfonts.com/icon -->

<svg version="1.1" xmlns="http://www.w3.org/2000/svg" xmlns:xlink="http://www.w3.org/1999/xlink" x="0px" y="0px" viewBox="0 0 256 256" enable-background="new 0 0 256 256" xml:space="preserve">
<metadata> Svg Vector Icons : http://www.onlinewebfonts.com/icon </metadata>
<g><g><g><path fill="#000000" data-title="Layer 0" xs="0" d="M101.6,10.5c-2.7,0.9-4.9,2.4-6.9,4.6c-3,3.4-3.5,5.3-3.7,15.4l-0.2,8.9h-9.2c-7.5,0-10.1,0.2-13.9,1c-5,1-10.2,3-14.4,5.6C41.5,53,33.2,66.3,32.4,79.5l-0.3,4.3h7.2h7.2l0.1,75.3c0.1,72,0.2,75.5,1,77.5c1.2,3.1,4.5,6.5,7.6,8.1l2.6,1.3H128h70.2l2.2-1c4.8-2.2,7.9-6.5,8.7-11.8c0.2-1.6,0.4-35.1,0.4-76.2V83.7h7.2h7.2l-0.3-4.3c-1-14.8-10.8-28.9-25-35.7c-7-3.4-10.3-4-22.7-4.2l-10.8-0.2v-6.8c0-8.1-0.5-11.8-1.9-14.6c-1.3-2.6-4.4-5.5-7.2-6.8c-2.1-1-2.6-1-27.3-1.1C108.9,9.9,103.1,10.1,101.6,10.5z M149.9,32v7.4H128h-21.9V32v-7.4H128h21.9V32z M194.2,157.6v73.9H128H61.8v-73.9V83.7H128h66.2V157.6z"/><path fill="#000000" data-title="Layer 1" xs="1" d="M76.1,157.6v59.1h7.6h7.6v-59.1V98.5h-7.6h-7.6V157.6z"/><path fill="#000000" data-title="Layer 2" xs="2" d="M105.6,157.6v59.1h7.6h7.6v-59.1V98.5h-7.6h-7.6V157.6z"/><path fill="#000000" data-title="Layer 3" xs="3" d="M135.2,157.6v59.1h7.6h7.6v-59.1V98.5h-7.6h-7.6V157.6z"/><path fill="#000000" data-title="Layer 4" xs="4" d="M164.7,157.6v59.1h7.6h7.6v-59.1V98.5h-7.6h-7.6V157.6z"/></g></g></g>
</svg>