<svg width="49" height="49" viewBox="0 0 49 49" fill="none" xmlns="http://www.w3.org/2000/svg">
<path d="M36.9136 9.1706L3.99475 42.1709L2 47L6.82901 45.0052L39.8289 12.0859L36.9136 9.1706ZM43.5003 2.58505L42.074 4.01006L44.9894 6.92541L46.4156 5.49919C46.7898 5.12468 47 4.61691 47 4.08748C47 3.55805 46.7898 3.05028 46.4156 2.67577L46.3248 2.58505C46.1394 2.39957 45.9192 2.25243 45.6769 2.15205C45.4346 2.05167 45.1748 2 44.9125 2C44.6503 2 44.3905 2.05167 44.1482 2.15205C43.9059 2.25243 43.6857 2.39957 43.5003 2.58505Z" stroke="white" stroke-width="4" stroke-linecap="round" stroke-linejoin="round"/>
</svg>
